<svg width="24" height="25" viewBox="0 0 24 25" fill="none" xmlns="http://www.w3.org/2000/svg">
<path fill-rule="evenodd" clip-rule="evenodd" d="M3.22606 22.3494C5.30893 23.9204 8.28996 24.795 11.9907 24.7977H12.0092C15.71 24.795 18.6909 23.9204 20.7739 22.3494C22.8818 20.7596 24 18.5034 24 15.9504C24 13.4906 22.8842 11.7168 21.6217 10.5179C20.6324 9.57828 19.5405 8.97651 18.7803 8.63037C18.9522 8.11072 19.1667 7.43042 19.3585 6.72776C19.6154 5.78752 19.8673 4.68436 19.8673 3.87596C19.8673 2.91912 19.6554 1.95819 19.0844 1.21151C18.481 0.422615 17.5726 0 16.4798 0C15.6258 0 14.9007 0.312025 14.3331 0.850299C13.7905 1.36481 13.4293 2.0481 13.18 2.76039C12.7418 4.01201 12.5712 5.58446 12.5233 7.15369H11.4766C11.4288 5.58446 11.2581 4.01201 10.82 2.76039C10.5706 2.0481 10.2095 1.36481 9.6669 0.850299C9.09924 0.312025 8.37415 0 7.5201 0C6.42731 0 5.51896 0.422615 4.91558 1.21151C4.34448 1.95819 4.13266 2.91912 4.13266 3.87596C4.13266 4.68436 4.38457 5.78752 4.64134 6.72776C4.83324 7.43042 5.04773 8.11072 5.21965 8.63037C4.45941 8.97651 3.36761 9.57828 2.37823 10.5179C1.11576 11.7168 0 13.4906 0 15.9504C0 18.5034 1.11821 20.7596 3.22606 22.3494ZM9.11205 14.7203C9.11205 15.9336 8.53574 16.5655 7.82482 16.5655C7.11392 16.5655 6.5376 15.9336 6.5376 14.7203C6.5376 13.5069 7.11392 12.875 7.82482 12.875C8.53574 12.875 9.11205 13.5069 9.11205 14.7203ZM16.192 16.5655C16.9029 16.5655 17.4791 15.9336 17.4791 14.7203C17.4791 13.5069 16.9029 12.875 16.192 12.875C15.4809 12.875 14.9047 13.5069 14.9047 14.7203C14.9047 15.9336 15.4809 16.5655 16.192 16.5655Z" fill="#0B0E11"/>
</svg>
