<svg width="27" height="24" viewBox="0 0 27 24" fill="none" xmlns="http://www.w3.org/2000/svg">
<path fill-rule="evenodd" clip-rule="evenodd" d="M2.11843 1.18508C2.59833 1.17796 2.74983 1.4422 3.03461 1.62206C3.79996 2.10537 4.52371 2.62218 5.07859 3.31362C5.21942 3.48907 5.71846 3.8644 5.60009 4.24399C5.53513 4.4527 4.87969 4.89785 4.69792 5.07568C3.94801 5.80807 3.23749 6.57976 2.56939 7.38748C2.51511 7.45349 2.46372 7.68368 2.41433 7.76807C2.18428 8.17682 1.95408 8.58561 1.72373 8.99445C1.61694 9.19113 1.52082 9.59242 1.21624 9.37506C0.84736 7.36501 0.865606 4.52392 1.41359 2.72158C1.58201 2.16777 1.72084 1.51342 2.11843 1.18508ZM24.5739 1.19918C25.1724 1.20141 25.3276 2.1047 25.476 2.58062C25.685 3.25052 25.7829 3.98824 25.913 4.77964C25.9366 5.23538 25.9601 5.69116 25.9835 6.14699C26.0481 6.56971 26.0336 7.19414 25.9693 7.59891C25.8701 8.22572 25.9457 8.99416 25.6451 9.43143C25.5188 9.43655 25.4705 9.4206 25.4055 9.37506C25.2271 9.04618 25.0486 8.71726 24.87 8.38831C24.2751 7.36752 23.5802 6.54978 22.8683 5.66771C22.3419 5.18378 21.8156 4.69981 21.2893 4.2158C21.2873 3.72933 21.7272 3.44039 21.9801 3.18676C22.7475 2.41736 23.5478 1.71304 24.5739 1.19918Z" fill="white"/>
<path fill-rule="evenodd" clip-rule="evenodd" d="M23.4323 0.832573C23.6404 0.812327 23.7507 0.899652 23.6437 1.05813C23.4452 1.13911 23.1467 1.37684 22.9811 1.49511C22.2403 2.02474 21.6082 2.61619 21.05 3.32764C20.8473 3.58612 20.4764 3.8832 20.4579 4.30028C20.6081 4.60548 20.9759 4.78905 21.2333 4.991C21.7414 5.38974 22.2945 5.88399 22.6993 6.38654C23.0563 6.82991 23.4392 7.25586 23.7707 7.7257C24.7701 9.14242 25.4111 10.7706 25.871 12.744C26.0341 13.4438 26.2323 14.5866 26.0824 15.4928V16.113C25.3032 20.5107 22.1613 22.0405 17.9207 22.9781C14.0615 23.8311 8.69535 23.3007 5.74141 22.0476C4.82054 21.6569 4.00959 21.1443 3.2745 20.5674C2.29979 19.8023 1.54668 18.6732 1.13197 17.3534C-0.031633 13.6512 1.93714 9.39539 3.47184 7.3028C4.09258 6.4566 4.8557 5.62876 5.68513 4.991C5.85021 4.86405 6.52456 4.44091 6.46026 4.2016C6.40175 3.79988 6.01396 3.49728 5.79771 3.22896C5.60526 3.01754 5.41265 2.8061 5.21991 2.59463C5.13047 2.47248 5.04118 2.3503 4.95203 2.22811C4.53443 1.85365 3.54281 1.38888 3.20397 0.959457C3.20397 0.870262 3.21621 0.852664 3.24647 0.804384C3.65851 0.720329 4.32729 1.14966 4.61363 1.29777C5.46509 1.73802 6.18973 2.30707 6.91147 2.87655C7.15242 3.06677 7.43719 3.52371 7.7994 3.55317C8.03234 3.57212 8.90738 3.10466 9.16679 3.00343C10.1393 2.62383 11.1872 2.47075 12.3808 2.28451L13.4521 2.2563C14.9145 2.2563 16.1965 2.45667 17.3144 2.83425L18.3577 3.22896C18.5579 3.31598 18.8563 3.57827 19.133 3.53909C19.5066 3.48613 20.2286 2.70503 20.5425 2.46775C21.1739 1.99061 21.8558 1.47571 22.6147 1.1427C22.8403 1.06287 23.2067 0.91249 23.4323 0.832573Z" fill="#828282"/>
<path fill-rule="evenodd" clip-rule="evenodd" d="M13.2684 11.3627C15.1658 11.3258 16.102 12.1045 17.131 12.9133C18.081 13.6601 18.8588 14.5843 19.795 15.3378C20.4353 15.8531 20.9584 16.4086 21.7827 16.7615C22.5269 17.0803 23.7982 17.305 24.6726 16.9589C24.9456 16.8509 25.8226 16.1646 25.9975 16.24V16.254C25.8967 17.6755 25.2005 18.7852 24.5175 19.6514C24.0027 20.3039 23.347 20.8085 22.6284 21.2584C19.4284 23.2614 13.0617 23.9901 8.34882 22.8089C7.03727 22.4803 5.84743 22.1666 4.82488 21.5685C3.28662 20.6686 2.08631 19.656 1.37124 17.9316C1.25867 17.6601 0.799447 16.5361 0.962306 16.1837H1.03284C1.16455 16.2776 1.29611 16.3716 1.42753 16.4656C2.50302 17.2227 4.0008 17.2472 5.30412 16.677C6.04588 16.3524 6.57562 15.8122 7.16476 15.3378L7.8696 14.633C8.80203 13.8818 9.58563 12.9684 10.5761 12.2649C11.0589 11.9219 11.6407 11.6547 12.2959 11.4896L13.2684 11.3627ZM18.1511 7.00499C19.5467 6.97829 20.6912 8.49168 19.3483 9.26179C19.1576 9.37112 18.9514 9.38458 18.6877 9.42692C17.5586 9.60829 16.6747 8.89142 17.1604 7.76184C17.2885 7.46344 17.5272 7.19281 17.8347 7.07378L18.1511 7.00499ZM8.38087 7.01874C9.19494 7.00483 9.57138 7.23653 9.79809 7.78936C10.0506 8.40458 9.81767 9.10821 9.344 9.30306C8.32235 9.72356 6.53046 9.20788 7.08734 7.92697C7.24152 7.57192 7.64088 7.24423 8.00931 7.1013C8.13302 7.07379 8.25687 7.04627 8.38087 7.01874Z" fill="white"/>
<path fill-rule="evenodd" clip-rule="evenodd" d="M2.6261 0.000911441C4.39375 -0.034931 5.71286 0.993931 6.74208 1.74885C6.957 1.90639 7.67141 2.60953 7.85585 2.65102C7.98155 2.67932 8.99008 2.23907 9.18075 2.17175C10.1955 1.81354 11.2726 1.69959 12.4936 1.49512C12.9129 1.42488 13.5328 1.41036 13.9595 1.48102L15.1576 1.56556C15.9839 1.72001 16.7504 1.85702 17.4837 2.08711C17.9676 2.27035 18.4516 2.45361 18.9356 2.63687C19.2044 2.69076 19.9228 1.9526 20.1197 1.8052C20.9921 1.15161 21.9536 0.481902 23.1081 0.127661C23.5925 -0.0209146 24.3985 -0.0752011 24.8137 0.169933C25.9802 0.85877 26.2356 2.57892 26.5475 4.131C26.5851 4.51157 26.6227 4.89217 26.6603 5.27281C26.756 5.86169 26.7898 6.86439 26.6886 7.48594C26.5684 8.22161 26.5638 8.93982 26.4067 9.61448C26.3339 9.92688 26.1161 10.4608 26.1811 10.8268C26.3032 11.2637 26.4254 11.7007 26.5475 12.1377C26.8692 13.3938 27.0448 15.3351 26.7308 16.7612C26.3778 18.3645 25.739 19.4057 24.8842 20.4687C24.2354 21.2755 23.2723 21.8995 22.2622 22.3434C21.0617 22.8709 19.7626 23.262 18.3153 23.584C17.5914 23.7451 16.8242 23.7635 16.0598 23.8941C15.8108 23.9081 15.5618 23.9222 15.3127 23.9364C14.7369 24.0294 14.075 23.9927 13.438 23.9927C12.8157 23.9929 12.1676 24.0296 11.6054 23.9364C10.8229 23.8067 10.0791 23.8572 9.35006 23.7108C7.31365 23.3021 5.39204 22.8869 3.86646 21.963C2.11728 20.9035 0.867357 19.333 0.257969 17.1279C0.119583 16.6278 0.139167 16.1276 0.0463906 15.5491C-0.050613 14.9444 0.0199131 14.1759 0.116917 13.6319C0.201461 13.1433 0.286004 12.6547 0.370548 12.1659C0.497587 11.7149 0.624475 11.2638 0.751217 10.8127C0.815293 10.4458 0.616169 10.0189 0.539856 9.71315C0.450417 9.11648 0.361136 8.51974 0.271994 7.92293C0.253083 7.51888 0.234245 7.11478 0.215482 6.71063C0.155633 6.33536 0.183889 5.80209 0.243738 5.44197C0.271919 5.10838 0.300096 4.77476 0.328278 4.44112C0.501149 3.52074 0.643092 2.6223 0.948565 1.84738C1.15726 1.31827 1.40199 0.728082 1.80847 0.395467C2.08591 0.168531 2.26568 0.157519 2.6261 0.000911441ZM3.40125 0.917084C3.37789 0.931167 3.3543 0.945273 3.33094 0.959356L3.34495 0.987545C3.63129 1.08424 3.82753 1.30347 4.04979 1.46682C4.35994 1.69228 4.67008 1.91782 4.98022 2.14345L5.23385 2.48176C5.46413 2.73539 5.6944 2.98912 5.92468 3.24295C6.07352 3.40363 6.62729 3.98894 6.54475 4.31428C6.47311 4.59684 5.86972 4.95417 5.64256 5.13187C4.90191 5.7116 4.20108 6.45862 3.64108 7.21814C2.07968 9.33593 0.0303708 13.5498 1.20242 17.3111C1.64317 18.7259 2.47015 19.8648 3.52829 20.6662C4.92839 21.7266 6.56499 22.3037 8.56068 22.8088C9.29578 22.995 10.0789 23.0326 10.8583 23.1754C11.467 23.2869 12.084 23.1848 12.7332 23.288C13.3541 23.387 14.6156 23.3314 15.1858 23.2317C15.496 23.2081 15.8061 23.1846 16.1163 23.1612C16.7786 23.0626 17.4411 22.964 18.1038 22.8653C20.1144 22.4234 21.7774 21.83 23.1927 20.8213C24.256 20.0681 25.0746 19.0191 25.5468 17.8046C25.7448 17.2996 25.8396 16.6759 25.9977 16.1693C26.0024 15.9017 26.0072 15.6339 26.012 15.366C26.0656 14.498 25.9946 13.6334 25.8287 12.9414C25.3652 11.0102 24.8115 9.43919 23.8692 8.02173C23.481 7.43782 23.0178 6.92441 22.5864 6.38646C22.1715 5.86883 21.5912 5.36766 21.0641 4.96274C20.8499 4.7981 20.4329 4.60331 20.3733 4.3002C20.3135 3.99539 20.8285 3.47377 20.9654 3.29937C21.4562 2.67418 22.0082 2.1024 22.6429 1.62183C22.8073 1.49724 23.4901 1.10037 23.5451 0.945206H23.5168C23.3244 0.884067 22.6622 1.22999 22.5018 1.31171C21.5819 1.78053 20.8207 2.36446 20.0492 2.97507C19.8011 3.17131 19.4932 3.69986 19.0059 3.60942C18.5363 3.41208 18.0664 3.21473 17.5965 3.01737C16.7606 2.69554 15.8113 2.56334 14.8194 2.39712L13.861 2.34099H12.6626C11.4194 2.5301 10.3412 2.64499 9.33582 3.03172C9.05037 3.14152 8.02427 3.67601 7.74305 3.62375C7.32567 3.54624 7.0133 3.05361 6.71405 2.82027C5.85593 2.15125 4.97422 1.41908 3.82419 1.05818C3.6749 1.01126 3.58969 0.925449 3.40125 0.917084ZM2.21718 1.32588C1.89168 1.55357 1.7553 2.1499 1.62515 2.56635C1.28652 3.64949 1.10386 4.89276 1.10364 6.31598C1.11299 6.68246 1.12241 7.04897 1.1319 7.4155C1.22156 7.96878 1.09986 8.97457 1.38553 9.3044V9.2763C1.86276 8.64 2.10148 7.81269 2.56959 7.17604C2.93269 6.68213 3.40147 6.26777 3.78192 5.79459C3.99328 5.56914 4.20471 5.34359 4.41622 5.11796C4.76396 4.79847 5.11171 4.47896 5.45946 4.15943C5.44811 3.8039 5.07099 3.57345 4.89545 3.35592C4.38196 2.71928 3.70049 2.23489 2.99254 1.79123C2.75626 1.64301 2.54823 1.36604 2.21718 1.32588ZM24.6729 1.33996C23.6781 1.81481 22.711 2.53753 22.0509 3.35568C21.9434 3.48884 21.3979 3.96449 21.4446 4.13097C21.9381 4.58671 22.4315 5.0425 22.9248 5.49832C23.7865 6.36115 24.4602 7.36498 25.0956 8.45856C25.246 8.73576 25.3964 9.01299 25.5468 9.29025H25.5608C25.622 9.00365 25.6831 8.71702 25.7441 8.43037C25.777 8.12027 25.8099 7.81015 25.8427 7.5V6.25969C25.824 5.85563 25.8052 5.45153 25.7864 5.04739C25.6562 4.24293 25.5877 3.48744 25.3775 2.80607C25.2613 2.42878 25.017 1.42562 24.6729 1.33996ZM6.81262 10.0234C7.9266 10.0435 8.57359 10.6943 8.74379 11.6727C8.78406 11.9041 8.75959 12.2151 8.6875 12.3916C8.40094 13.0927 7.69589 13.1776 6.81262 13.3079C6.53029 13.3495 6.13048 13.337 5.89642 13.2656C4.99891 12.9917 4.69255 11.815 5.24788 10.9256C5.48745 10.5523 5.84459 10.2696 6.26285 10.1221L6.81262 10.0234ZM19.9223 10.0375C20.8946 10.0223 21.5452 10.5176 21.8253 11.1934C22.1706 12.0257 21.8464 12.9412 21.191 13.2091C20.9266 13.3172 20.4652 13.3632 20.1054 13.3078C19.8276 13.265 19.5955 13.2902 19.3583 13.2233C18.5972 13.0083 17.8345 12.3394 18.2448 11.2921C18.4479 10.7735 18.8262 10.3673 19.3443 10.1644L19.9223 10.0375ZM13.4098 12.4198C14.2799 12.4233 15.2197 12.6713 15.5523 13.2233C15.7272 13.5133 15.6466 13.976 15.5383 14.2805C15.2793 15.0091 14.663 15.5297 13.9172 15.7606C13.9266 15.7747 13.9359 15.7889 13.9455 15.8029C14.3522 15.9876 14.7689 16.5398 15.4397 16.409C15.961 16.3073 16.2889 15.8034 16.525 15.4082C16.6129 15.2614 16.6667 15.0492 16.8069 14.9571C17.0372 14.8058 17.3591 15.0221 17.4272 15.1826C17.4959 15.436 17.3133 15.6538 17.2298 15.8169C17.0376 16.1927 16.8038 16.5442 16.4827 16.7896C16.3136 16.9071 16.1445 17.0246 15.9752 17.1421C15.7785 17.4066 15.7761 17.9047 15.6511 18.2276C15.3289 19.0588 14.7567 19.8206 13.8327 20.0459C12.4515 20.3828 11.5424 19.0427 11.2107 18.1853C11.1121 17.8375 11.0135 17.4898 10.9148 17.1421C10.7551 17.0199 10.5952 16.8978 10.4353 16.7756C10.1212 16.5309 9.8778 16.1874 9.68824 15.8169C9.6126 15.6692 9.41792 15.4093 9.50514 15.1686C9.57856 14.9658 9.96813 14.8097 10.1677 14.9853C10.2427 15.1217 10.3178 15.258 10.3931 15.3942C10.6338 15.8029 10.966 16.3073 11.5068 16.409C12.1189 16.5242 12.6428 15.95 13.0151 15.7747V15.7466C12.0991 15.5646 10.6718 14.1149 11.5208 13.0541C11.7929 12.7142 12.4126 12.5621 12.9163 12.4621L13.4098 12.4198Z" fill="#0B0E11"/>
<path fill-rule="evenodd" clip-rule="evenodd" d="M2.6261 0.000911441C4.39375 -0.034931 5.71286 0.993931 6.74208 1.74885C6.957 1.90639 7.67141 2.60953 7.85585 2.65102C7.98155 2.67932 8.99008 2.23907 9.18075 2.17175C10.1955 1.81354 11.2726 1.69959 12.4936 1.49512C12.9129 1.42488 13.5328 1.41036 13.9595 1.48102L15.1576 1.56556C15.9839 1.72001 16.7504 1.85702 17.4837 2.08711C17.9676 2.27035 18.4516 2.45361 18.9356 2.63687C19.2044 2.69076 19.9228 1.9526 20.1197 1.8052C20.9921 1.15161 21.9536 0.481902 23.1081 0.127661C23.5925 -0.0209146 24.3985 -0.0752011 24.8137 0.169933C25.9802 0.85877 26.2356 2.57892 26.5475 4.131C26.5851 4.51157 26.6227 4.89217 26.6603 5.27281C26.756 5.86169 26.7898 6.86439 26.6886 7.48594C26.5684 8.22161 26.5638 8.93982 26.4067 9.61448C26.3339 9.92688 26.1161 10.4608 26.1811 10.8268C26.3032 11.2637 26.4254 11.7007 26.5475 12.1377C26.8692 13.3938 27.0448 15.3351 26.7308 16.7612C26.3778 18.3645 25.739 19.4057 24.8842 20.4687C24.2354 21.2755 23.2723 21.8995 22.2622 22.3434C21.0617 22.8709 19.7626 23.262 18.3153 23.584C17.5914 23.7451 16.8242 23.7635 16.0598 23.8941C15.8108 23.9081 15.5618 23.9222 15.3127 23.9364C14.7369 24.0294 14.075 23.9927 13.438 23.9927C12.8157 23.9929 12.1676 24.0296 11.6054 23.9364C10.8229 23.8067 10.0791 23.8572 9.35006 23.7108C7.31365 23.3021 5.39204 22.8869 3.86646 21.963C2.11728 20.9035 0.867357 19.333 0.257969 17.1279C0.119583 16.6278 0.139167 16.1276 0.0463906 15.5491C-0.050613 14.9444 0.0199131 14.1759 0.116917 13.6319C0.201461 13.1433 0.286004 12.6547 0.370548 12.1659C0.497587 11.7149 0.624475 11.2638 0.751217 10.8127C0.815293 10.4458 0.616169 10.0189 0.539856 9.71315C0.450417 9.11648 0.361136 8.51974 0.271994 7.92293C0.253083 7.51888 0.234245 7.11478 0.215482 6.71063C0.155633 6.33536 0.183889 5.80209 0.243738 5.44197C0.271919 5.10838 0.300096 4.77476 0.328278 4.44112C0.501149 3.52074 0.643092 2.6223 0.948565 1.84738C1.15726 1.31827 1.40199 0.728082 1.80847 0.395467C2.08591 0.168531 2.26568 0.157519 2.6261 0.000911441ZM3.40125 0.917084C3.37789 0.931167 3.3543 0.945273 3.33094 0.959356L3.34495 0.987545C3.63129 1.08424 3.82753 1.30347 4.04979 1.46682C4.35994 1.69228 4.67008 1.91782 4.98022 2.14345L5.23385 2.48176C5.46413 2.73539 5.6944 2.98912 5.92468 3.24295C6.07352 3.40363 6.62729 3.98894 6.54475 4.31428C6.47311 4.59684 5.86972 4.95417 5.64256 5.13187C4.90191 5.7116 4.20108 6.45862 3.64108 7.21814C2.07968 9.33593 0.0303708 13.5498 1.20242 17.3111C1.64317 18.7259 2.47015 19.8648 3.52829 20.6662C4.92839 21.7266 6.56499 22.3037 8.56068 22.8088C9.29578 22.995 10.0789 23.0326 10.8583 23.1754C11.467 23.2869 12.084 23.1848 12.7332 23.288C13.3541 23.387 14.6156 23.3314 15.1858 23.2317C15.496 23.2081 15.8061 23.1846 16.1163 23.1612C16.7786 23.0626 17.4411 22.964 18.1038 22.8653C20.1144 22.4234 21.7774 21.83 23.1927 20.8213C24.256 20.0681 25.0746 19.0191 25.5468 17.8046C25.7448 17.2996 25.8396 16.6759 25.9977 16.1693C26.0024 15.9017 26.0072 15.6339 26.012 15.366C26.0656 14.498 25.9946 13.6334 25.8287 12.9414C25.3652 11.0102 24.8115 9.43919 23.8692 8.02173C23.481 7.43782 23.0178 6.92441 22.5864 6.38646C22.1715 5.86883 21.5912 5.36766 21.0641 4.96274C20.8499 4.7981 20.4329 4.60331 20.3733 4.3002C20.3135 3.99539 20.8285 3.47377 20.9654 3.29937C21.4562 2.67418 22.0082 2.1024 22.6429 1.62183C22.8073 1.49724 23.4901 1.10037 23.5451 0.945206H23.5168C23.3244 0.884067 22.6622 1.22999 22.5018 1.31171C21.5819 1.78053 20.8207 2.36446 20.0492 2.97507C19.8011 3.17131 19.4932 3.69986 19.0059 3.60942C18.5363 3.41208 18.0664 3.21473 17.5965 3.01737C16.7606 2.69554 15.8113 2.56334 14.8194 2.39712L13.861 2.34099H12.6626C11.4194 2.5301 10.3412 2.64499 9.33582 3.03172C9.05037 3.14152 8.02427 3.67601 7.74305 3.62375C7.32567 3.54624 7.0133 3.05361 6.71405 2.82027C5.85593 2.15125 4.97422 1.41908 3.82419 1.05818C3.6749 1.01126 3.58969 0.925449 3.40125 0.917084ZM2.21718 1.32588C1.89168 1.55357 1.7553 2.1499 1.62515 2.56635C1.28652 3.64949 1.10386 4.89276 1.10364 6.31598C1.11299 6.68246 1.12241 7.04897 1.1319 7.4155C1.22156 7.96878 1.09986 8.97457 1.38553 9.3044V9.2763C1.86276 8.64 2.10148 7.81269 2.56959 7.17604C2.93269 6.68213 3.40147 6.26777 3.78192 5.79459C3.99328 5.56914 4.20471 5.34359 4.41622 5.11796C4.76396 4.79847 5.11171 4.47896 5.45946 4.15943C5.44811 3.8039 5.07099 3.57345 4.89545 3.35592C4.38196 2.71928 3.70049 2.23489 2.99254 1.79123C2.75626 1.64301 2.54823 1.36604 2.21718 1.32588ZM24.6729 1.33996C23.6781 1.81481 22.711 2.53753 22.0509 3.35568C21.9434 3.48884 21.3979 3.96449 21.4446 4.13097C21.9381 4.58671 22.4315 5.0425 22.9248 5.49832C23.7865 6.36115 24.4602 7.36498 25.0956 8.45856C25.246 8.73576 25.3964 9.01299 25.5468 9.29025H25.5608C25.622 9.00365 25.6831 8.71702 25.7441 8.43037C25.777 8.12027 25.8099 7.81015 25.8427 7.5V6.25969C25.824 5.85563 25.8052 5.45153 25.7864 5.04739C25.6562 4.24293 25.5877 3.48744 25.3775 2.80607C25.2613 2.42878 25.017 1.42562 24.6729 1.33996ZM6.81262 10.0234C7.9266 10.0435 8.57359 10.6943 8.74379 11.6727C8.78406 11.9041 8.75959 12.2151 8.6875 12.3916C8.40094 13.0927 7.69589 13.1776 6.81262 13.3079C6.53029 13.3495 6.13048 13.337 5.89642 13.2656C4.99891 12.9917 4.69255 11.815 5.24788 10.9256C5.48745 10.5523 5.84459 10.2696 6.26285 10.1221L6.81262 10.0234ZM19.9223 10.0375C20.8946 10.0223 21.5452 10.5176 21.8253 11.1934C22.1706 12.0257 21.8464 12.9412 21.191 13.2091C20.9266 13.3172 20.4652 13.3632 20.1054 13.3078C19.8276 13.265 19.5955 13.2902 19.3583 13.2233C18.5972 13.0083 17.8345 12.3394 18.2448 11.2921C18.4479 10.7735 18.8262 10.3673 19.3443 10.1644L19.9223 10.0375ZM13.4098 12.4198C14.2799 12.4233 15.2197 12.6713 15.5523 13.2233C15.7272 13.5133 15.6466 13.976 15.5383 14.2805C15.2793 15.0091 14.663 15.5297 13.9172 15.7606C13.9266 15.7747 13.9359 15.7889 13.9455 15.8029C14.3522 15.9876 14.7689 16.5398 15.4397 16.409C15.961 16.3073 16.2889 15.8034 16.525 15.4082C16.6129 15.2614 16.6667 15.0492 16.8069 14.9571C17.0372 14.8058 17.3591 15.0221 17.4272 15.1826C17.4959 15.436 17.3133 15.6538 17.2298 15.8169C17.0376 16.1927 16.8038 16.5442 16.4827 16.7896C16.3136 16.9071 16.1445 17.0246 15.9752 17.1421C15.7785 17.4066 15.7761 17.9047 15.6511 18.2276C15.3289 19.0588 14.7567 19.8206 13.8327 20.0459C12.4515 20.3828 11.5424 19.0427 11.2107 18.1853C11.1121 17.8375 11.0135 17.4898 10.9148 17.1421C10.7551 17.0199 10.5952 16.8978 10.4353 16.7756C10.1212 16.5309 9.8778 16.1874 9.68824 15.8169C9.6126 15.6692 9.41792 15.4093 9.50514 15.1686C9.57856 14.9658 9.96813 14.8097 10.1677 14.9853C10.2427 15.1217 10.3178 15.258 10.3931 15.3942C10.6338 15.8029 10.966 16.3073 11.5068 16.409C12.1189 16.5242 12.6428 15.95 13.0151 15.7747V15.7466C12.0991 15.5646 10.6718 14.1149 11.5208 13.0541C11.7929 12.7142 12.4126 12.5621 12.9163 12.4621L13.4098 12.4198Z" fill="#0B0E11"/>
<path fill-rule="evenodd" clip-rule="evenodd" d="M6.8127 10.0234C7.92668 10.0436 8.57367 10.6944 8.74387 11.6727C8.78414 11.9041 8.75967 12.2151 8.68759 12.3916C8.40102 13.0927 7.69597 13.1777 6.8127 13.3079C6.53037 13.3495 6.13056 13.337 5.8965 13.2656C4.99899 12.9918 4.69263 11.815 5.24796 10.9256C5.48753 10.5524 5.84467 10.2696 6.26293 10.1221L6.8127 10.0234ZM19.9224 10.0375C20.8947 10.0224 21.5452 10.5177 21.8253 11.1934C22.1706 12.0258 21.8465 12.9413 21.191 13.2092C20.9267 13.3172 20.4653 13.3633 20.1055 13.3078C19.8276 13.265 19.5956 13.2903 19.3584 13.2233C18.5973 13.0083 17.8346 12.3395 18.2449 11.2921C18.448 10.7735 18.8262 10.3673 19.3444 10.1644L19.9224 10.0375Z" fill="#0B0E11"/>
<path fill-rule="evenodd" clip-rule="evenodd" d="M19.7529 10.6437C20.5287 10.6277 20.5848 11.7554 19.894 11.8842C19.4713 11.963 19.0975 11.5252 19.2314 11.0948C19.3149 10.8267 19.5044 10.7529 19.7529 10.6437ZM6.98182 10.6719C7.8177 10.6414 7.94651 11.6627 7.31999 11.8419C6.6977 12.0199 6.31703 11.3591 6.64342 10.8974C6.72463 10.7825 6.85411 10.7435 6.98182 10.6719Z" fill="white"/>
<path fill-rule="evenodd" clip-rule="evenodd" d="M13.1983 18.0161C13.619 18.0048 14.5154 18.0457 14.636 18.284C14.6407 18.3029 14.6453 18.3216 14.6502 18.3405C14.3901 18.6684 14.157 19.0233 13.7338 19.1861C13.1324 19.4178 12.2941 18.7272 12.2256 18.284C12.2349 18.27 12.2443 18.2557 12.2538 18.2417C12.4183 18.1901 12.5827 18.1384 12.7471 18.0866C12.8975 18.0633 13.0479 18.0398 13.1983 18.0161Z" fill="white"/>
<path fill-rule="evenodd" clip-rule="evenodd" d="M13.3113 12.8568C13.8252 12.8437 15.1063 13.0451 14.7772 13.618C14.4477 14.1914 12.4009 14.2254 12.1412 13.5757C11.8985 12.9685 12.9673 12.9929 13.3113 12.8568Z" fill="white"/>
</svg>
