<svg width="24" height="24" viewBox="0 0 24 24" fill="none" xmlns="http://www.w3.org/2000/svg">
<g clip-path="url(#clip0_24_2370)">
<path fill-rule="evenodd" clip-rule="evenodd" d="M21.514 2.14367C21.8091 2.01646 22.1321 1.97258 22.4493 2.01661C22.7666 2.06064 23.0665 2.19096 23.3179 2.39401C23.5693 2.59706 23.763 2.86542 23.8788 3.17114C23.9946 3.47687 24.0282 3.8088 23.9762 4.13237L21.268 20.9581C21.0053 22.5811 19.2667 23.5118 17.8135 22.7034C16.5979 22.027 14.7924 20.985 13.1684 19.8977C12.3564 19.3534 9.86912 17.6106 10.1748 16.3704C10.4375 15.31 14.6169 11.3252 17.0051 8.95614C17.9424 8.02539 17.515 7.48846 16.408 8.34461C13.6592 10.4703 9.2458 13.7029 7.78661 14.6128C6.49937 15.4152 5.82828 15.5521 5.02584 15.4152C3.56187 15.1656 2.20418 14.7792 1.09605 14.3083C-0.401352 13.6723 -0.328512 11.5637 1.09486 10.9497L21.514 2.14367Z" fill="#0B0E11"/>
</g>
<defs>
<clipPath id="clip0_24_2370">
<rect width="24" height="24" fill="white"/>
</clipPath>
</defs>
</svg>
